<svg xmlns="http://www.w3.org/2000/svg" viewBox="186.41924707031251 221.499990234375 202.1615029923513 132"> <g transform="rotate(180 324.98950222859753 287.499990234375)"><svg xmlns="http://www.w3.org/2000/svg" viewBox="0.5 0.5 132 137" fill="none" height="131.99999999999997" width="127.18249566813257" y="221.499990234375" x="261.39825439453125" preserveAspectRatio="xMinYMin" style="overflow: visible;"><path fill-rule="evenodd" clip-rule="evenodd" d="M0.5 23C0.5 10.5736 10.5736 0.5 23 0.5H110C122.426 0.5 132.5 10.5736 132.5 23V31C132.5 32.3807 131.381 33.5 130 33.5C128.619 33.5 127.5 32.3807 127.5 31V23C127.5 13.335 119.665 5.5 110 5.5H23C13.335 5.5 5.5 13.335 5.5 23V115C5.5 124.665 13.335 132.5 23 132.5H110C119.665 132.5 127.5 124.665 127.5 115V107C127.5 105.619 128.619 104.5 130 104.5C131.381 104.5 132.5 105.619 132.5 107V115C132.5 127.426 122.426 137.5 110 137.5H23C10.5736 137.5 0.5 127.426 0.5 115V23Z" fill="url(#paint0_linear_24401_3745)" style="fill: #000c33; fill-opacity: 1;"></path><linearGradient id="paint0_linear_24401_3745" x1="124.5" y1="8" x2="1" y2="137" gradientUnits="userSpaceOnUse" style=""><stop stop-color="#7CD0E4"></stop><stop offset="1" stop-color="#8AE0AC"></stop></linearGradient></svg></g> <svg x="186.4192470703125" y="269.929990234375" viewBox="2.25 4.090000152587891 147.60000610351562 36" height="36" width="147.60000610351562" xmlns="http://www.w3.org/2000/svg" style="overflow: visible;"><g fill="#000c33" fill-opacity="1" style=""><path d="M4.37 39.64L4.37 39.64Q3.33 39.64 2.79 38.99Q2.25 38.34 2.25 37.46Q2.25 36.58 2.79 35.86L2.79 35.86L14.13 20.74L16.16 18.94L26.50 5.17Q27.13 4.50 28.17 4.50L28.17 4.50Q29.11 4.50 29.65 5.08Q30.20 5.67 30.24 6.52Q30.29 7.38 29.74 8.19L29.74 8.19L18.81 22.77L16.88 24.48L5.98 38.97Q5.31 39.64 4.37 39.64ZM27.90 39.64L27.90 39.64Q27.31 39.64 26.89 39.44Q26.46 39.24 26.10 38.79L26.10 38.79L15.62 24.25L13.95 22.86L3.38 8.19Q2.83 7.47 2.92 6.61Q3.01 5.76 3.58 5.13Q4.14 4.50 5.08 4.50L5.08 4.50Q6.25 4.50 6.75 5.17L6.75 5.17L16.74 19.03L18.45 20.43L29.56 35.86Q30.11 36.58 30.06 37.48Q30.02 38.38 29.45 39.01Q28.89 39.64 27.90 39.64ZM39.82 39.64L39.82 39.64Q38.56 39.64 37.89 38.56Q37.21 37.48 37.75 36.27L37.75 36.27L50.40 6.07Q51.07 4.50 52.60 4.50L52.60 4.50Q54.22 4.50 54.81 6.07L54.81 6.07L67.50 36.36Q68.00 37.62 67.34 38.63Q66.69 39.64 65.38 39.64L65.38 39.64Q64.71 39.64 64.10 39.26Q63.49 38.88 63.22 38.20L63.22 38.20L52.06 10.48L53.33 10.48L41.98 38.20Q41.67 38.92 41.06 39.28Q40.45 39.64 39.82 39.64ZM63.45 31.90L42.21 31.90L44.01 28.03L61.65 28.03L63.45 31.90ZM79.69 39.64L79.69 39.64Q78.70 39.64 78.03 38.97Q77.35 38.29 77.35 37.30L77.35 37.30L77.35 6.84Q77.35 5.80 78.03 5.15Q78.70 4.50 79.69 4.50L79.69 4.50Q81.04 4.50 81.76 5.76L81.76 5.76L95.85 33.97L94.41 33.97L108.13 5.76Q108.85 4.50 110.20 4.50L110.20 4.50Q111.19 4.50 111.87 5.15Q112.54 5.80 112.54 6.84L112.54 6.84L112.54 37.30Q112.54 38.29 111.85 38.97Q111.15 39.64 110.20 39.64L110.20 39.64Q109.21 39.64 108.54 38.97Q107.86 38.29 107.86 37.30L107.86 37.30L107.86 13.32L108.76 13.09L96.97 37.12Q96.21 38.29 94.95 38.29L94.95 38.29Q93.46 38.29 92.79 36.90L92.79 36.90L81.13 13.54L82.03 13.32L82.03 37.30Q82.03 38.29 81.36 38.97Q80.68 39.64 79.69 39.64ZM137.20 40.09L137.20 40.09Q134.32 40.09 131.71 39.19Q129.10 38.29 127.17 36.67Q125.23 35.05 124.33 32.94L124.33 32.94Q123.88 31.99 124.36 31.18Q124.83 30.37 125.95 30.15L125.95 30.15Q126.76 29.97 127.55 30.40Q128.34 30.82 128.74 31.68L128.74 31.68Q129.28 32.80 130.52 33.75Q131.76 34.69 133.51 35.28Q135.27 35.86 137.20 35.86L137.20 35.86Q139.36 35.86 141.19 35.19Q143.01 34.51 144.13 33.23Q145.26 31.95 145.26 30.06L145.26 30.06Q145.26 27.67 143.39 25.78Q141.52 23.89 137.25 23.44L137.25 23.44Q131.67 22.90 128.47 20.16Q125.28 17.41 125.28 13.36L125.28 13.36Q125.28 10.39 126.94 8.32Q128.61 6.25 131.47 5.17Q134.32 4.09 137.83 4.09L137.83 4.09Q140.58 4.09 142.63 4.86Q144.67 5.63 146.20 6.97Q147.73 8.32 148.86 10.17L148.86 10.17Q149.49 11.16 149.38 12.04Q149.26 12.91 148.50 13.41L148.50 13.41Q147.64 13.95 146.65 13.63Q145.66 13.32 145.17 12.46L145.17 12.46Q144.45 11.16 143.41 10.26Q142.38 9.36 140.98 8.84Q139.59 8.32 137.70 8.32L137.70 8.32Q134.37 8.28 132.12 9.56Q129.87 10.84 129.87 13.50L129.87 13.50Q129.87 14.85 130.57 16.09Q131.26 17.32 133.13 18.22Q135 19.12 138.51 19.48L138.51 19.48Q143.86 20.02 146.86 22.75Q149.85 25.47 149.85 29.92L149.85 29.92Q149.85 32.49 148.79 34.38Q147.73 36.27 145.96 37.55Q144.18 38.83 141.91 39.46Q139.63 40.09 137.20 40.09Z" transform="translate(0, 0)"></path></g></svg></svg>