<?xml version="1.0" encoding="UTF-8"?>
<!DOCTYPE svg PUBLIC "-//W3C//DTD SVG 1.1//EN" "http://www.w3.org/Graphics/SVG/1.1/DTD/svg11.dtd">
<!-- Creator: CorelDRAW X7 -->
<svg xmlns="http://www.w3.org/2000/svg" xml:space="preserve" width="3.33333in" height="2.66666in" version="1.1" style="shape-rendering:geometricPrecision; text-rendering:geometricPrecision; image-rendering:optimizeQuality; fill-rule:evenodd; clip-rule:evenodd"
viewBox="400 400 2533 1000"
 xmlns:xlink="http://www.w3.org/1999/xlink">
 <defs>
  <style type="text/css">
   <![CDATA[
    .fil5 {fill:#FEFEFE}
    .fil0 {fill:black}
    .fil1 {fill:#00F259}
    .fil3 {fill:#0B7533}
    .fil2 {fill:#16A34A}
    .fil4 {fill:#FEFEFE;fill-rule:nonzero}
   ]]>
  </style>
 </defs>
 <g id="Layer_x0020_1">
  <metadata id="CorelCorpID_0Corel-Layer"/>
  <rect class="fil0" width="3333" height="2667"/>
  <g id="_1671935814048">
   <g>
    <path class="fil1" d="M676 1333l-10 -9 -255 -255 180 0 175 175 46 46c24,24 24,63 0,87l-46 46 -55 55c15,-15 23,-33 23,-55 0,-21 -8,-40 -23,-55l-35 -35z"/>
    <path class="fil2" d="M676 1513l-85 85 -180 0 255 -255 10 -10 35 35c15,15 23,34 23,55 0,22 -8,40 -23,55l-35 35z"/>
    <path class="fil3" d="M649 1360l17 -17 10 -10 35 35c15,15 23,34 23,55 0,22 -8,40 -23,55l-27 27c15,-15 23,-34 23,-55 0,-21 -8,-40 -23,-55l-35 -35z"/>
    <g>
     <polygon class="fil2" points="962,1201 1094,1069 915,1069 783,1201 "/>
     <polygon class="fil2" points="783,1466 795,1478 830,1513 915,1598 1094,1598 962,1466 "/>
    </g>
   </g>
   <g>
    <path class="fil4" d="M1559 1220l-75 -112 -62 0 0 3 101 146 -104 151 0 1 63 0 77 -113 77 113 64 0 0 -1 -105 -151 102 -146 0 -3 -63 0 -75 112zm1354 -62c-23,-46 -72,-60 -119,-60 -55,1 -116,26 -116,88 0,67 57,84 118,91 40,4 70,16 70,44 0,33 -34,45 -69,45 -37,0 -72,-14 -85,-47l-47 24c22,55 69,74 131,74 67,0 126,-29 126,-96 0,-71 -58,-88 -121,-96 -36,-4 -67,-11 -67,-37 0,-23 20,-40 62,-40 33,0 61,16 72,33l45 -23zm-426 251l57 0 0 -300 -65 0 -94 129 -94 -129 -66 0 0 300 57 0 0 -218 96 131 11 0 98 -131 0 218zm-430 0l62 0 -135 -301 -62 0 -135 301 62 0c69,-151 30,-67 104,-238 65,150 47,111 104,238z"/>
    <path class="fil4" d="M1485 1567l-26 -36 25 -34 -15 0 -17 25 -18 -25 -14 0 24 34 -25 36 14 0 18 -27 19 27 15 0zm69 -11l-8 -8c-3,3 -6,5 -9,7 -3,1 -7,2 -11,2 -4,0 -7,-1 -10,-2 -3,-1 -5,-3 -7,-5 -2,-3 -4,-5 -5,-8 -1,-3 -2,-7 -2,-10 0,-4 1,-7 2,-10 1,-3 3,-6 5,-8 2,-2 4,-4 7,-5 3,-2 6,-2 10,-2 4,0 7,1 10,2 4,2 7,4 9,7l8 -10c-1,-1 -3,-3 -5,-4 -2,-1 -4,-3 -6,-4 -2,-1 -5,-1 -7,-2 -3,0 -6,-1 -9,-1 -6,0 -11,1 -15,3 -4,2 -8,5 -11,8 -4,3 -6,7 -8,12 -2,4 -3,9 -3,14 0,5 1,10 3,14 2,5 4,9 8,12 3,3 7,6 11,8 4,1 9,2 14,2 4,0 7,0 9,0 3,-1 5,-2 8,-3 2,-1 4,-2 6,-4 2,-1 4,-3 6,-5zm65 -59l-52 0 0 70 53 0 0 -11 -41 0 0 -19 36 0 0 -11 -36 0 0 -18 40 0 0 -11zm16 70l49 0 0 -11 -37 0 0 -59 -12 0 0 70zm62 0l49 0 0 -11 -37 0 0 -59 -12 0 0 70zm115 -70l-53 0 0 70 53 0 0 -11 -40 0 0 -19 35 0 0 -11 -35 0 0 -18 40 0 0 -11zm75 70l-19 -27c2,0 5,-1 7,-2 2,-2 3,-3 5,-5 1,-2 3,-4 3,-6 1,-2 2,-5 2,-8 0,-3 -1,-7 -2,-9 -1,-3 -3,-5 -5,-7 -3,-2 -5,-4 -9,-5 -3,-1 -7,-1 -11,-1l-31 0 0 70 12 0 0 -24 16 0 17 24 15 0zm-15 -47c0,3 -1,6 -4,8 -3,3 -6,4 -11,4l-18 0 0 -24 18 0c5,0 9,1 11,3 3,2 4,5 4,9zm64 -24l-11 0 -31 71 13 0 7 -17 33 0 7 17 14 0 -32 -71zm7 43l-25 0 12 -28 13 28zm57 -31l23 0 0 -11 -58 0 0 11 23 0 0 59 12 0 0 -59zm88 -11l-52 0 0 70 53 0 0 -11 -41 0 0 -19 36 0 0 -11 -36 0 0 -18 40 0 0 -11zm110 35c0,-5 -1,-10 -3,-14 -2,-4 -5,-8 -8,-11 -3,-3 -7,-6 -12,-8 -4,-2 -9,-2 -15,-2l-26 0 0 70 26 0c6,0 11,-1 15,-3 5,-1 9,-4 12,-7 3,-3 6,-7 8,-11 2,-5 3,-9 3,-14zm-13 0c0,3 -1,7 -2,10 -1,3 -3,5 -5,7 -2,2 -5,4 -8,5 -3,1 -6,2 -10,2l-14 0 0 -48 14 0c4,0 7,0 10,2 3,1 6,3 8,5 2,2 4,4 5,7 1,3 2,6 2,10zm80 -35l-52 0 0 70 52 0 0 -11 -40 0 0 -19 35 0 0 -11 -35 0 0 -18 40 0 0 -11zm44 54l-21 -54 -14 0 30 71 10 0 30 -71 -14 0 -21 54zm99 -54l-52 0 0 70 53 0 0 -11 -41 0 0 -19 36 0 0 -11 -36 0 0 -18 40 0 0 -11zm15 70l50 0 0 -11 -37 0 0 -59 -13 0 0 70zm130 -35c0,-5 -1,-10 -3,-14 -2,-5 -4,-9 -8,-12 -3,-3 -7,-6 -11,-8 -5,-2 -10,-3 -15,-3 -6,0 -11,1 -15,3 -5,2 -9,5 -12,8 -3,4 -6,7 -8,12 -1,4 -2,9 -2,14 0,5 1,10 2,14 2,5 5,8 8,12 3,3 7,6 12,8 4,1 9,2 15,2 5,0 10,-1 15,-3 4,-1 8,-4 11,-7 4,-4 6,-8 8,-12 2,-5 3,-9 3,-14zm-13 0c0,3 -1,7 -2,10 -1,3 -3,5 -5,8 -2,2 -5,4 -8,5 -3,1 -6,2 -9,2 -4,0 -7,-1 -10,-2 -3,-1 -5,-3 -8,-5 -2,-3 -3,-5 -4,-8 -2,-4 -2,-7 -2,-10 0,-4 0,-7 2,-10 1,-3 2,-6 4,-8 3,-2 5,-4 8,-5 3,-2 6,-2 10,-2 3,0 6,0 9,2 3,1 6,3 8,5 2,3 4,5 5,8 1,3 2,7 2,10zm82 -12c0,-3 0,-7 -2,-10 -1,-2 -3,-5 -5,-7 -2,-2 -5,-4 -8,-5 -4,-1 -7,-1 -12,-1l-27 0 0 70 12 0 0 -23 14 0c4,0 8,0 11,-1 3,-1 6,-3 9,-5 3,-2 5,-4 6,-7 2,-3 2,-7 2,-11zm-12 1c0,3 -2,6 -4,9 -3,2 -7,3 -12,3l-14 0 0 -25 14 0c5,0 9,1 12,3 2,2 4,5 4,10zm82 -4l0 50 12 0 0 -70 -13 0 -21 33 -22 -33 -13 0 0 70 12 0 0 -50 22 33 1 0 22 -33zm83 -20l-52 0 0 70 52 0 0 -11 -40 0 0 -19 35 0 0 -11 -35 0 0 -18 40 0 0 -11zm64 48l-37 -48 -12 0 0 70 12 0 0 -50 39 50 11 0 0 -70 -13 0 0 48zm61 -37l22 0 0 -11 -57 0 0 11 22 0 0 59 13 0 0 -59z"/>
   </g>
   <rect class="fil5" x="1269" y="972" width="15.1908" height="723.397"/>
  </g>
 </g>
</svg>
