<svg version="1.2" xmlns="http://www.w3.org/2000/svg" viewBox="0 0 2533 800" width="2533" height="800">
	<title>logo-svg</title>
	<style>
		.s0 { fill: #00f259 } 
		.s1 { fill: #16a34a } 
		.s2 { fill: #0b7533 } 
		.s3 { fill: #fefefe } 
	</style>
	<g id="Layer_x0020_1">
		<g id="_1671935814048">
			<g id="Layer">
				<path id="Layer" fill-rule="evenodd" class="s0" d="m276 399l-10-9-255-255h180l175 175 46 46c24 24 24 63 0 87l-46 46-55 55c15-15 23-33 23-55 0-21-8-40-23-55z"/>
				<path id="Layer" fill-rule="evenodd" class="s1" d="m276 579l-85 85h-180l255-255 10-10 35 35c15 15 23 34 23 55 0 22-8 40-23 55z"/>
				<path id="Layer" fill-rule="evenodd" class="s2" d="m249 426l17-17 10-10 35 35c15 15 23 34 23 55 0 22-8 40-23 55l-27 27c15-15 23-34 23-55 0-21-8-40-23-55z"/>
				<g id="Layer">
					<path id="Layer" class="s1" d="m562 267l132-132h-179l-132 132z"/>
					<path id="Layer" class="s1" d="m383 532l12 12 35 35 85 85h179l-132-132z"/>
				</g>
			</g>
			<g id="Layer">
				<path id="Layer" class="s3" d="m1159 286l-75-112h-62v3l101 146-104 151v1h63l77-113 77 113h64v-1l-105-151 102-146v-3h-63zm1354-62c-23-46-72-60-119-60-55 1-116 26-116 88 0 67 57 84 118 91 40 4 70 16 70 44 0 33-34 45-69 45-37 0-72-14-85-47l-47 24c22 55 69 74 131 74 67 0 126-29 126-96 0-71-58-88-121-96-36-4-67-11-67-37 0-23 20-40 62-40 33 0 61 16 72 33zm-426 251h57v-300h-65l-94 129-94-129h-66v300h57v-218l96 131h11l98-131zm-430 0h62l-135-301h-62l-135 301h62c69-151 30-67 104-238 65 150 47 111 104 238z"/>
				<path id="Layer" fill-rule="evenodd" class="s3" d="m1070 633l-19-27-18 27h-14l25-36-24-34h14l18 25 17-25h15l-25 34 26 36zm78-6c-2 2-4 3-6 4-3 1-5 2-8 3q-3 0-9 0c-5 0-10-1-14-2-4-2-8-5-11-8-4-3-6-7-8-12-2-4-3-9-3-14 0-5 1-10 3-14 2-5 4-9 8-12 3-3 7-6 11-8q6-3 15-3c3 0 6 1 9 1 2 1 5 1 7 2 2 1 4 3 6 4 2 1 4 3 5 4l-8 10c-2-3-5-5-9-7-3-1-6-2-10-2-4 0-7 0-10 2-3 1-5 3-7 5-2 2-4 5-5 8-1 3-2 6-2 10 0 3 1 7 2 10 1 3 3 5 5 8 2 2 4 4 7 5 3 1 6 2 10 2 4 0 8-1 11-2 3-2 6-4 9-7l8 8c-2 2-4 4-6 5zm71-53h-40v18h36v11h-36v19h41v11h-53v-70h52zm16-11h12v59h37v11h-49zm62 0h12v59h37v11h-49zm115 11h-40v18h35v11h-35v19h40v11h-53v-70h53zm60 59l-17-24h-16v24h-12v-70h31c4 0 8 0 11 1 4 1 6 3 9 5 2 2 4 4 5 7 1 2 2 6 2 9 0 3-1 6-2 8 0 2-2 4-3 6-2 2-3 3-5 5-2 1-5 2-7 2l19 27zm-4-56c-2-2-6-3-11-3h-18v24h18c5 0 8-1 11-4 3-2 4-5 4-8 0-4-1-7-4-9zm100 56h-14l-7-17h-33l-7 17h-13l31-71h11zm-38-56l-12 28h25zm70 56h-12v-59h-23v-11h58v11h-23zm88-59h-40v18h36v11h-36v19h41v11h-53v-70h52zm107 38c-2 4-5 8-8 11-3 3-7 6-12 7q-6 3-15 3h-26v-70h26c6 0 11 0 15 2 5 2 9 5 12 8 3 3 6 7 8 11 2 4 3 9 3 14 0 5-1 9-3 14zm-12-24c-1-3-3-5-5-7-2-2-5-4-8-5-3-2-6-2-10-2h-14v48h14c4 0 7-1 10-2 3-1 6-3 8-5 2-2 4-4 5-7 1-3 2-7 2-10 0-4-1-7-2-10zm82-14h-40v18h35v11h-35v19h40v11h-52v-70h52zm65-11h14l-30 71h-10l-30-71h14l21 54zm78 11h-40v18h36v11h-36v19h41v11h-53v-70h52zm15-11h13v59h37v11h-50zm127 49c-2 4-4 8-8 12-3 3-7 6-11 7q-7.5 3-15 3c-6 0-11-1-15-2-5-2-9-5-12-8-3-4-6-7-8-12-1-4-2-9-2-14 0-5 1-10 2-14 2-5 5-8 8-12 3-3 7-6 12-8q6-3 15-3 7.5 0 15 3c4 2 8 5 11 8 4 3 6 7 8 12 2 4 3 9 3 14 0 5-1 9-3 14zm-12-24c-1-3-3-5-5-8-2-2-5-4-8-5-3-2-6-2-9-2-4 0-7 0-10 2-3 1-5 3-8 5-2 2-3 5-4 8-2 3-2 6-2 10 0 3 0 6 2 10 1 3 2 5 4 8 3 2 5 4 8 5 3 1 6 2 10 2 3 0 6-1 9-2 3-1 6-3 8-5 2-3 4-5 5-8 1-3 2-7 2-10 0-3-1-7-2-10zm82 9c-1 3-3 5-6 7-3 2-6 4-9 5-3 1-7 1-11 1h-14v23h-12v-70h27c5 0 8 0 12 1 3 1 6 3 8 5 2 2 4 5 5 7 2 3 2 7 2 10 0 4 0 8-2 11zm-14-20q-4.5-3-12-3h-14v25h14q7.5 0 12-3c2-3 4-6 4-9 0-5-2-8-4-10zm64 39h-1l-22-33v50h-12v-70h13l22 33 21-33h13v70h-12v-50zm105-42h-40v18h35v11h-35v19h40v11h-52v-70h52zm64-11h13v70h-11l-39-50v50h-12v-70h12l37 48zm61 70h-13v-59h-22v-11h57v11h-22z"/>
			</g>
			<path id="Layer" class="s3" d="m869 38h15.2v723.4h-15.2z"/>
		</g>
	</g>
</svg>