<svg version="1.2" xmlns="http://www.w3.org/2000/svg" viewBox="0 0 2533 800" width="2533" height="800">
	<title>logo_cropped-svg</title>
	<style>
		.s0 { fill: #00f259 } 
		.s1 { fill: #16a34a } 
		.s2 { fill: #0b7533 } 
		.s3 { fill: #000000 } 
	</style>
	<g id="Layer_x0020_1">
		<g id="_1671935814048">
			<g id="Layer">
				<path id="Layer" fill-rule="evenodd" class="s0" d="m276 399l-10-9-255-255h180l175 175 46 46c24 24 24 63 0 87l-46 46-55 55c15-15 23-33 23-55 0-21-8-40-23-55z"/>
				<path id="Layer" fill-rule="evenodd" class="s1" d="m276 579l-85 85h-180l255-255 10-10 35 35c15 15 23 34 23 55 0 22-8 40-23 55z"/>
				<path id="Layer" fill-rule="evenodd" class="s2" d="m249 426l17-17 10-10 35 35c15 15 23 34 23 55 0 22-8 40-23 55l-27 27c15-15 23-34 23-55 0-21-8-40-23-55z"/>
				<g id="Layer">
					<path id="Layer" class="s1" d="m562 267l132-132h-179l-132 132z"/>
					<path id="Layer" class="s1" d="m383 532l12 12 35 35 85 85h179l-132-132z"/>
				</g>
			</g>
			<g id="Layer">
				<path id="Layer" class="s3" d="m1159 364l-75-112h-62v3l101 146-104 151v1h63l77-113 77 113h64v-1l-105-151 102-146v-3h-63zm1354-62c-23-46-72-60-119-60-55 1-116 26-116 88 0 67 57 84 118 91 40 4 70 16 70 44 0 33-34 45-69 45-37 0-72-14-85-47l-47 24c22 55 69 74 131 74 67 0 126-29 126-96 0-71-58-88-121-96-36-4-67-11-67-37 0-23 20-40 62-40 33 0 61 16 72 33zm-426 251h57v-300h-65l-94 129-94-129h-66v300h57v-218l96 131h11l98-131zm-430 0h62l-135-301h-62l-135 301h62c69-151 30-67 104-238 65 150 47 111 104 238z"/>
			</g>
			<path id="Layer" class="s3" d="m869 38h15.2v723.4h-15.2z"/>
		</g>
	</g>
</svg>